<svg width="94" height="36" viewBox="0 0 94 36" fill="none" xmlns="http://www.w3.org/2000/svg">
<path d="M15.412 0.857056C15.7728 0.961879 16.1428 1.0405 16.4945 1.17153C17.4944 1.54496 17.8308 2.05925 17.8461 3.18282C17.8461 3.27454 17.8552 3.36299 17.8644 3.51695H18.2956C21.219 3.51695 24.1393 3.51695 27.0627 3.51695C28.2766 3.51695 28.8546 3.9952 29.0197 5.28256C29.0901 5.83944 29.0442 6.4389 28.928 6.98922C28.7629 7.77212 28.3103 8.32244 27.4602 8.35192C27.4602 8.67294 27.4602 8.98086 27.4602 9.29206C27.4602 12.4761 25.2462 14.851 22.2648 14.8641C20.8826 14.8706 19.5004 14.8641 18.1182 14.8641C17.9867 14.8641 17.8552 14.8641 17.7054 14.8641V15.8599H18.1213C21.2893 15.8599 24.4542 15.8599 27.6223 15.8599C28.7659 15.8599 29.3867 16.4168 29.5029 17.6353C29.5549 18.1857 29.5365 18.7655 29.4387 19.306C29.2766 20.1871 28.6742 20.6588 27.8424 20.6785C27.7323 20.6785 27.6223 20.6785 27.5122 20.6785C19.0509 20.6785 10.5896 20.6785 2.12526 20.6785C0.770598 20.6785 0.35472 20.3247 0.0489268 18.9096C0.0458689 18.8899 0.0183476 18.8736 0 18.8572C0 18.4641 0 18.071 0 17.6779C0.0214055 17.6484 0.0519848 17.6222 0.0581006 17.5895C0.311909 16.3087 0.822582 15.8566 2.02741 15.8566C5.15872 15.8566 8.29004 15.8566 11.4214 15.8566H11.8678V14.8608C11.7149 14.8608 11.5834 14.8608 11.4519 14.8608C10.0575 14.8608 8.66311 14.8673 7.26869 14.8608C4.70615 14.8411 2.66651 13.0362 2.19253 10.3403C2.07939 9.69497 2.09468 9.02672 2.04881 8.34865C1.2354 8.31261 0.801177 7.73281 0.632991 6.94008C0.522905 6.41597 0.489268 5.84271 0.556543 5.30877C0.724729 3.99193 1.29045 3.51367 2.52891 3.51367C5.44005 3.51367 8.3512 3.51367 11.2623 3.51367H11.7119C11.721 3.35316 11.7333 3.23851 11.7333 3.12714C11.7455 2.0789 12.0666 1.56461 12.984 1.19773C13.3387 1.0536 13.7209 0.96843 14.0909 0.857056C14.5313 0.857056 14.9716 0.857056 15.412 0.857056ZM14.8004 8.33882C13.0023 8.33882 11.2042 8.32899 9.40924 8.34865C9.13097 8.35192 8.82212 8.44364 8.5836 8.59433C8.13409 8.87931 8.11574 9.3936 8.49186 9.78341C8.80989 10.111 9.20742 10.147 9.61718 10.147C13.0665 10.147 16.5128 10.147 19.9621 10.147C20.0967 10.147 20.2465 10.1732 20.3627 10.1241C20.6379 10.0029 20.9346 9.88824 21.1547 9.68842C21.4391 9.42636 21.4208 9.08896 21.1761 8.78104C20.9101 8.44692 20.5584 8.33882 20.1609 8.33882C18.3751 8.34209 16.5893 8.33882 14.8034 8.33882H14.8004Z" fill="#23707B"/>
<path d="M3.76456 35.1427C3.73401 35.1232 3.70346 35.0939 3.66985 35.0873C2.13605 34.7615 1.44859 33.9174 1.4211 32.2651C1.40276 31.1701 1.40276 30.0751 1.43332 28.9802C1.47609 27.4517 2.40492 26.4415 3.84095 26.3176C4.02427 26.3013 4.20759 26.3013 4.39091 26.3013C9.92724 26.3013 15.4605 26.3013 20.9968 26.3013C21.1068 26.3013 21.2443 26.3437 21.3207 26.2883C21.4429 26.2003 21.5957 26.0471 21.5957 25.92C21.5957 25.7864 21.4582 25.6137 21.339 25.5224C21.2565 25.4605 21.1038 25.5029 20.9816 25.5029C15.1275 25.5029 9.27645 25.5029 3.42236 25.5029C2.64324 25.5029 1.94051 25.3432 1.62886 24.4666C1.28666 23.5084 1.29888 22.5666 1.94968 21.7454C2.28577 21.3217 2.77462 21.2142 3.27876 21.2142C4.85533 21.2142 6.4319 21.2142 8.00847 21.2142C13.7037 21.2142 19.3958 21.2142 25.091 21.2142C26.301 21.2142 27.3276 21.9702 27.6209 23.0718C27.6453 23.1597 27.6728 23.2477 27.6759 23.339C27.685 24.7957 27.7523 26.2557 27.6728 27.7092C27.6117 28.8335 26.6829 29.733 25.6349 29.8926C25.3446 29.9383 25.0513 29.9611 24.758 29.9611C19.185 29.9643 13.6151 29.9643 8.04208 29.9611C7.73654 29.9611 7.53489 30.0197 7.54711 30.3945C7.55627 30.6683 7.65099 30.8475 7.94431 30.828C8.04208 30.8214 8.13985 30.828 8.23762 30.828C14.1406 30.828 20.0405 30.828 25.9435 30.828C27.7309 30.828 28.675 32.6236 27.7859 34.3052C27.5109 34.8266 27.0465 34.9733 26.5759 35.1427C18.9742 35.1427 11.3724 35.1427 3.77067 35.1427H3.76456Z" fill="#23707B"/>
<path d="M62.8125 9.71489C62.7261 10.0007 62.6547 10.2953 62.5534 10.5723C62.2288 11.4738 61.6302 11.9223 60.7546 11.9091C60.2097 11.9003 59.6647 11.9091 59.0601 11.9091V12.406C59.0601 13.923 59.0601 15.4401 59.0601 16.9571C59.0601 18.461 58.5538 19.1777 57.2286 19.4811C56.365 19.679 55.4983 19.6614 54.6645 19.3008C53.8246 18.9359 53.4375 18.2807 53.4375 17.2781C53.4375 12.7973 53.4375 8.31218 53.4375 3.83141C53.4375 2.65736 53.8544 1.97139 54.8521 1.6372C55.9063 1.28103 56.9665 1.29422 57.988 1.80869C58.7117 2.17366 59.0571 2.82885 59.0601 3.71269C59.0601 4.45582 59.0601 5.20334 59.0601 5.94647C59.0601 6.04761 59.075 6.15314 59.0839 6.29385C59.5753 6.29385 60.0459 6.29385 60.5194 6.29385C61.8327 6.29385 62.3985 6.77315 62.747 8.18905C62.7559 8.22423 62.7887 8.24622 62.8095 8.277V9.71489H62.8125Z" fill="#23707B"/>
<path d="M61.1973 21.7738C63.3633 21.7738 65.5322 21.8488 67.6951 21.7543C70.7479 21.624 72.211 24.4553 72.5428 26.9412C72.8294 29.0884 72.6001 31.128 71.5443 32.9265C70.6876 34.3861 69.5352 35.1257 68.0661 35.1225C63.5563 35.1094 59.0495 35.0606 54.5397 35.142C52.0812 35.1876 50.6483 33.2425 50.0963 31.242C49.4477 28.8831 49.5412 26.5633 50.591 24.3999C51.4447 22.6438 52.7237 21.7575 54.3889 21.7706C56.6574 21.7836 58.9289 21.7738 61.1973 21.7738ZM61.1611 29.6325C62.2441 29.6325 63.3241 29.6325 64.407 29.6325C65.0948 29.6325 65.7796 29.639 66.4673 29.6325C66.9078 29.626 67.2185 29.3523 67.3784 28.8375C67.5232 28.3716 67.4115 27.9643 67.1461 27.6189C66.9017 27.3029 66.582 27.2703 66.2502 27.2703C62.8685 27.2703 59.4869 27.2703 56.1053 27.2703C55.9816 27.2703 55.8549 27.2703 55.7313 27.2931C55.3331 27.3746 55.0706 27.6678 54.956 28.1435C54.8414 28.6159 54.956 29.0525 55.2607 29.3262C55.4568 29.5022 55.7343 29.6129 55.9786 29.6162C57.7071 29.639 59.4326 29.6292 61.1611 29.6292V29.6325Z" fill="#1FA8BD"/>
<path d="M72.6562 12.9999L74.0625 7.84369" stroke="#23707B" stroke-width="5" stroke-linecap="round"/>
<path d="M76.4062 19.0937C78.5156 16.2812 81.3281 12.9998 91.4062 12.9999" stroke="#23707B" stroke-width="5" stroke-linecap="round"/>
<path d="M42.3446 21.5085C40.0258 21.588 37.7071 21.6675 35.3883 21.7471C34.6899 21.7698 34.0127 21.66 33.3808 21.2661C32.5374 20.7397 31.9327 19.9444 31.9085 18.7174C31.8692 16.4641 31.8662 14.207 31.8904 11.9536C31.9116 9.99194 33.2357 8.8861 34.5266 8.80279C35.1041 8.76492 35.6875 8.78764 36.268 8.78385C38.4568 8.78385 40.6456 8.78385 42.8344 8.78385C43.3725 8.78385 43.6023 8.54905 43.6053 8.03401C43.6053 7.71589 43.4995 7.50382 43.2516 7.43944C43.0763 7.39399 42.8949 7.36369 42.7135 7.36369C39.8112 7.35991 36.9089 7.36369 34.0066 7.36369C32.879 7.36369 32.2199 6.76912 31.9932 5.38683C31.8844 4.7203 31.8723 3.99697 31.9478 3.32286C32.0718 2.19052 32.7097 1.52778 33.6287 1.41417C33.7134 1.40281 33.798 1.39902 33.8827 1.39523C38.1756 1.39523 42.4686 1.38766 46.7585 1.39902C47.7078 1.39902 48.5271 1.81181 49.1438 2.76616C49.5308 3.36831 49.6487 4.07271 49.6517 4.80741C49.6578 6.94333 49.6457 9.07925 49.6366 11.2114C49.6276 12.908 48.5694 14.0934 47.2967 14.3357C47.0004 14.3925 46.695 14.4153 46.3927 14.4153C43.8169 14.4228 41.2412 14.4153 38.6654 14.419C38.357 14.419 38.0366 14.4304 37.9398 14.9076C37.831 15.4491 38.0638 15.8241 38.5354 15.8316C39.14 15.843 39.7447 15.8127 40.3463 15.79C43.3151 15.6764 46.2869 15.5741 49.2557 15.4453C50.9759 15.3696 51.5715 16.7405 51.5624 18.5546C51.5624 18.7818 51.5291 19.0052 51.505 19.2324C51.3629 20.4973 50.7129 21.232 49.6941 21.2661C47.2422 21.3532 44.7904 21.4365 42.3416 21.5236V21.5161L42.3446 21.5085Z" fill="#23707B"/>
</svg>
