<svg width="94" height="33" viewBox="0 0 94 33" fill="none" xmlns="http://www.w3.org/2000/svg">
<path d="M15.412 0.428467C15.7728 0.526739 16.1428 0.600442 16.4945 0.723282C17.4944 1.07338 17.8308 1.55552 17.8461 2.60887C17.8461 2.69486 17.8552 2.77778 17.8644 2.92211H18.2956C21.219 2.92211 24.1393 2.92211 27.0627 2.92211C28.2766 2.92211 28.8546 3.37048 29.0197 4.57738C29.0901 5.09945 29.0442 5.66144 28.928 6.17737C28.7629 6.91134 28.3103 7.42726 27.4602 7.4549C27.4602 7.75586 27.4602 8.04453 27.4602 8.33628C27.4602 11.3213 25.2462 13.5478 22.2648 13.56C20.8826 13.5662 19.5004 13.56 18.1182 13.56C17.9867 13.56 17.8552 13.56 17.7054 13.56V14.4936H18.1213C21.2893 14.4936 24.4542 14.4936 27.6223 14.4936C28.7659 14.4936 29.3867 15.0157 29.5029 16.1581C29.5549 16.674 29.5365 17.2176 29.4387 17.7243C29.2766 18.5504 28.6742 18.9926 27.8424 19.0111C27.7323 19.0111 27.6223 19.0111 27.5122 19.0111C19.0509 19.0111 10.5896 19.0111 2.12526 19.0111C0.770598 19.0111 0.35472 18.6794 0.0489268 17.3527C0.0458689 17.3343 0.0183476 17.3189 0 17.3036C0 16.9351 0 16.5665 0 16.198C0.0214055 16.1704 0.0519848 16.1458 0.0581006 16.1151C0.311909 14.9143 0.822582 14.4906 2.02741 14.4906C5.15872 14.4906 8.29004 14.4906 11.4214 14.4906H11.8678V13.557C11.7149 13.557 11.5834 13.557 11.4519 13.557C10.0575 13.557 8.66311 13.5631 7.26869 13.557C4.70615 13.5385 2.66651 11.8464 2.19253 9.319C2.07939 8.71401 2.09468 8.08753 2.04881 7.45183C1.2354 7.41805 0.801177 6.87448 0.632991 6.1313C0.522905 5.63994 0.489268 5.10252 0.556543 4.60195C0.724729 3.36741 1.29045 2.91904 2.52891 2.91904C5.44005 2.91904 8.3512 2.91904 11.2623 2.91904H11.7119C11.721 2.76856 11.7333 2.66108 11.7333 2.55667C11.7455 1.57395 12.0666 1.0918 12.984 0.74785C13.3387 0.612726 13.7209 0.532881 14.0909 0.428467C14.5313 0.428467 14.9716 0.428467 15.412 0.428467ZM14.8004 7.44262C13.0023 7.44262 11.2042 7.43341 9.40924 7.45183C9.13097 7.4549 8.82212 7.54089 8.5836 7.68216C8.13409 7.94933 8.11574 8.43148 8.49186 8.79693C8.80989 9.10403 9.20742 9.13781 9.61718 9.13781C13.0665 9.13781 16.5128 9.13781 19.9621 9.13781C20.0967 9.13781 20.2465 9.16238 20.3627 9.11631C20.6379 9.00268 20.9346 8.8952 21.1547 8.70787C21.4391 8.46219 21.4208 8.14588 21.1761 7.8572C20.9101 7.54396 20.5584 7.44262 20.1609 7.44262C18.3751 7.44569 16.5893 7.44262 14.8034 7.44262H14.8004Z" fill="#23707B"/>
<path d="M3.76456 32.5712C3.73401 32.5529 3.70346 32.5254 3.66985 32.5193C2.13605 32.2138 1.44859 31.4225 1.4211 29.8735C1.40276 28.8469 1.40276 27.8203 1.43332 26.7938C1.47609 25.3609 2.40492 24.4138 3.84095 24.2977C4.02427 24.2824 4.20759 24.2824 4.39091 24.2824C9.92724 24.2824 15.4605 24.2824 20.9968 24.2824C21.1068 24.2824 21.2443 24.3221 21.3207 24.2702C21.4429 24.1877 21.5957 24.0441 21.5957 23.9249C21.5957 23.7997 21.4582 23.6377 21.339 23.5522C21.2565 23.4941 21.1038 23.5339 20.9816 23.5339C15.1275 23.5339 9.27645 23.5339 3.42236 23.5339C2.64324 23.5339 1.94051 23.3842 1.62886 22.5623C1.28666 21.6641 1.29888 20.7811 1.94968 20.0112C2.28577 19.614 2.77462 19.5132 3.27876 19.5132C4.85533 19.5132 6.4319 19.5132 8.00847 19.5132C13.7037 19.5132 19.3958 19.5132 25.091 19.5132C26.301 19.5132 27.3276 20.222 27.6209 21.2547C27.6453 21.3372 27.6728 21.4196 27.6759 21.5052C27.685 22.8709 27.7523 24.2396 27.6728 25.6022C27.6117 26.6563 26.6829 27.4995 25.6349 27.6493C25.3446 27.692 25.0513 27.7134 24.758 27.7134C19.185 27.7165 13.6151 27.7165 8.04208 27.7134C7.73654 27.7134 7.53489 27.7684 7.54711 28.1198C7.55627 28.3764 7.65099 28.5444 7.94431 28.5261C8.04208 28.52 8.13985 28.5261 8.23762 28.5261C14.1406 28.5261 20.0405 28.5261 25.9435 28.5261C27.7309 28.5261 28.675 30.2095 27.7859 31.786C27.5109 32.2749 27.0465 32.4123 26.5759 32.5712C18.9742 32.5712 11.3724 32.5712 3.77067 32.5712H3.76456Z" fill="#23707B"/>
<path d="M62.8125 8.73266C62.7261 9.00061 62.6547 9.27681 62.5534 9.53652C62.2288 10.3816 61.6302 10.8021 60.7546 10.7897C60.2097 10.7815 59.6647 10.7897 59.0601 10.7897V11.2556C59.0601 12.6778 59.0601 14.1 59.0601 15.5222C59.0601 16.9321 58.5538 17.604 57.2286 17.8885C56.365 18.074 55.4983 18.0575 54.6645 17.7195C53.8246 17.3773 53.4375 16.7631 53.4375 15.8232C53.4375 11.6225 53.4375 7.41762 53.4375 3.2169C53.4375 2.11622 53.8544 1.47313 54.8521 1.15983C55.9063 0.825913 56.9665 0.83828 57.988 1.3206C58.7117 1.66276 59.0571 2.277 59.0601 3.1056C59.0601 3.80228 59.0601 4.50309 59.0601 5.19977C59.0601 5.29458 59.075 5.39352 59.0839 5.52544C59.5753 5.52544 60.0459 5.52544 60.5194 5.52544C61.8327 5.52544 62.3985 5.97478 62.747 7.30219C62.7559 7.33517 62.7887 7.35578 62.8095 7.38464V8.73266H62.8125Z" fill="#23707B"/>
<path d="M61.1973 20.038C63.3633 20.038 65.5322 20.1083 67.6951 20.0197C70.7479 19.8975 72.211 22.5519 72.5428 24.8825C72.8294 26.8954 72.6001 28.8075 71.5443 30.4936C70.6876 31.862 69.5352 32.5554 68.0661 32.5524C63.5563 32.5401 59.0495 32.4943 54.5397 32.5707C52.0812 32.6135 50.6483 30.7899 50.0963 28.9144C49.4477 26.703 49.5412 24.5282 50.591 22.5C51.4447 20.8536 52.7237 20.0227 54.3889 20.035C56.6574 20.0472 58.9289 20.038 61.1973 20.038ZM61.1611 27.4055C62.2441 27.4055 63.3241 27.4055 64.407 27.4055C65.0948 27.4055 65.7796 27.4116 66.4673 27.4055C66.9078 27.3994 67.2185 27.1428 67.3784 26.6602C67.5232 26.2234 67.4115 25.8416 67.1461 25.5178C66.9017 25.2215 66.582 25.191 66.2502 25.191C62.8685 25.191 59.4869 25.191 56.1053 25.191C55.9816 25.191 55.8549 25.191 55.7313 25.2124C55.3331 25.2887 55.0706 25.5636 54.956 26.0096C54.8414 26.4525 54.956 26.8618 55.2607 27.1184C55.4568 27.2833 55.7343 27.3872 55.9786 27.3902C57.7071 27.4116 59.4326 27.4025 61.1611 27.4025V27.4055Z" fill="#1FA8BD"/>
<path d="M72.6562 14L74.0625 8.84375" stroke="#23707B" stroke-width="5" stroke-linecap="round"/>
<path d="M76.4062 20.0937C78.5156 17.2812 81.3281 13.9999 91.4062 14" stroke="#23707B" stroke-width="5" stroke-linecap="round"/>
<path d="M42.3446 19.7892C40.0258 19.8637 37.7071 19.9383 35.3883 20.0128C34.6899 20.0341 34.0127 19.9312 33.3808 19.5619C32.5374 19.0684 31.9327 18.3228 31.9085 17.1725C31.8692 15.06 31.8662 12.944 31.8904 10.8315C31.9116 8.99239 33.2357 7.95567 34.5266 7.87756C35.1041 7.84206 35.6875 7.86336 36.268 7.85981C38.4568 7.85981 40.6456 7.85981 42.8344 7.85981C43.3725 7.85981 43.6023 7.63969 43.6053 7.15683C43.6053 6.8586 43.4995 6.65978 43.2516 6.59942C43.0763 6.55682 42.8949 6.52841 42.7135 6.52841C39.8112 6.52486 36.9089 6.52841 34.0066 6.52841C32.879 6.52841 32.2199 5.971 31.9932 4.6751C31.8844 4.05023 31.8723 3.37211 31.9478 2.74014C32.0718 1.67857 32.7097 1.05725 33.6287 0.950734C33.7134 0.940083 33.798 0.936533 33.8827 0.932983C38.1756 0.932983 42.4686 0.925882 46.7585 0.936533C47.7078 0.936533 48.5271 1.32353 49.1438 2.21823C49.5308 2.78274 49.6487 3.44312 49.6517 4.13189C49.6578 6.13432 49.6457 8.13674 49.6366 10.1356C49.6276 11.7262 48.5694 12.8375 47.2967 13.0647C47.0004 13.118 46.695 13.1393 46.3927 13.1393C43.8169 13.1464 41.2412 13.1393 38.6654 13.1428C38.357 13.1428 38.0366 13.1535 37.9398 13.6008C37.831 14.1085 38.0638 14.46 38.5354 14.4671C39.14 14.4778 39.7447 14.4494 40.3463 14.4281C43.3151 14.3215 46.2869 14.2257 49.2557 14.105C50.9759 14.034 51.5715 15.3192 51.5624 17.0198C51.5624 17.2329 51.5291 17.4423 51.505 17.6554C51.3629 18.8412 50.7129 19.53 49.6941 19.5619C47.2422 19.6436 44.7904 19.7217 42.3416 19.8034V19.7963L42.3446 19.7892Z" fill="#23707B"/>
</svg>
