{"accessors":[{"bufferView":0,"componentType":5126,"count":11784,"max":[1802.2586669921875,2108.71435546875,424.8282470703125],"min":[-78.44828033447266,228.00738525390625,-1409.4559326171875],"type":"VEC3"},{"bufferView":1,"componentType":5126,"count":11784,"type":"VEC3"},{"bufferView":2,"componentType":5126,"count":11784,"type":"VEC2"},{"bufferView":3,"componentType":5125,"count":11784,"type":"SCALAR"},{"bufferView":4,"componentType":5126,"count":11784,"max":[-98.49530029296875,2108.71435546875,424.8282470703125],"min":[-1979.2022705078125,228.00738525390625,-1409.4559326171875],"type":"VEC3"},{"bufferView":5,"componentType":5126,"count":11784,"type":"VEC3"},{"bufferView":6,"componentType":5126,"count":11784,"type":"VEC2"},{"bufferView":7,"componentType":5125,"count":11784,"type":"SCALAR"},{"bufferView":8,"componentType":5126,"count":11784,"max":[1802.2586669921875,2108.71435546875,2274.16845703125],"min":[-78.44828033447266,228.00738525390625,439.8844299316406],"type":"VEC3"},{"bufferView":9,"componentType":5126,"count":11784,"type":"VEC3"},{"bufferView":10,"componentType":5126,"count":11784,"type":"VEC2"},{"bufferView":11,"componentType":5125,"count":11784,"type":"SCALAR"},{"bufferView":12,"componentType":5126,"count":11784,"max":[-98.49530029296875,2108.71435546875,2274.16845703125],"min":[-1979.2022705078125,228.00738525390625,439.8844299316406],"type":"VEC3"},{"bufferView":13,"componentType":5126,"count":11784,"type":"VEC3"},{"bufferView":14,"componentType":5126,"count":11784,"type":"VEC2"},{"bufferView":15,"componentType":5125,"count":11784,"type":"SCALAR"},{"bufferView":16,"componentType":5126,"count":11784,"max":[1802.2586669921875,209.42079162597656,424.8282470703125],"min":[-78.44828033447266,-1671.2862548828125,-1409.4559326171875],"type":"VEC3"},{"bufferView":17,"componentType":5126,"count":11784,"type":"VEC3"},{"bufferView":18,"componentType":5126,"count":11784,"type":"VEC2"},{"bufferView":19,"componentType":5125,"count":11784,"type":"SCALAR"},{"bufferView":20,"componentType":5126,"count":11784,"max":[-98.49530029296875,209.42079162597656,424.8282470703125],"min":[-1979.2022705078125,-1671.2862548828125,-1409.4559326171875],"type":"VEC3"},{"bufferView":21,"componentType":5126,"count":11784,"type":"VEC3"},{"bufferView":22,"componentType":5126,"count":11784,"type":"VEC2"},{"bufferView":23,"componentType":5125,"count":11784,"type":"SCALAR"},{"bufferView":24,"componentType":5126,"count":11784,"max":[1802.2586669921875,209.42079162597656,2274.16845703125],"min":[-78.44828033447266,-1671.2862548828125,439.8844299316406],"type":"VEC3"},{"bufferView":25,"componentType":5126,"count":11784,"type":"VEC3"},{"bufferView":26,"componentType":5126,"count":11784,"type":"VEC2"},{"bufferView":27,"componentType":5125,"count":11784,"type":"SCALAR"},{"bufferView":28,"componentType":5126,"count":11784,"max":[-98.49530029296875,209.42079162597656,2274.16845703125],"min":[-1979.2022705078125,-1671.2862548828125,439.8844299316406],"type":"VEC3"},{"bufferView":29,"componentType":5126,"count":11784,"type":"VEC3"},{"bufferView":30,"componentType":5126,"count":11784,"type":"VEC2"},{"bufferView":31,"componentType":5125,"count":11784,"type":"SCALAR"},{"bufferView":32,"componentType":5126,"count":3072,"max":[219.85841369628906,-1590.6170654296875,874.4935302734375],"min":[-420.8747253417969,-2079.112060546875,170.8542938232422],"type":"VEC3"},{"bufferView":33,"componentType":5126,"count":3072,"type":"VEC3"},{"bufferView":34,"componentType":5126,"count":3072,"type":"VEC2"},{"bufferView":35,"componentType":5125,"count":3072,"type":"SCALAR"},{"bufferView":36,"componentType":5126,"count":57024,"max":[1268.2720947265625,111.85894775390625,-309.91015625],"min":[222.09068298339844,-1982.1693115234375,-2564.951904296875],"type":"VEC3"},{"bufferView":37,"componentType":5126,"count":57024,"type":"VEC3"},{"bufferView":38,"componentType":5126,"count":57024,"type":"VEC2"},{"bufferView":39,"componentType":5125,"count":57024,"type":"SCALAR"},{"bufferView":40,"componentType":5126,"count":57024,"max":[-350.3026428222656,111.85894775390625,-309.91015625],"min":[-1396.484130859375,-1982.1693115234375,-2564.951904296875],"type":"VEC3"},{"bufferView":41,"componentType":5126,"count":57024,"type":"VEC3"},{"bufferView":42,"componentType":5126,"count":57024,"type":"VEC2"},{"bufferView":43,"componentType":5125,"count":57024,"type":"SCALAR"},{"bufferView":44,"componentType":5126,"count":85680,"max":[505.0761413574219,-1534.7862548828125,1152.34326171875],"min":[-710.3419189453125,-1838.5517578125,484.1474914550781],"type":"VEC3"},{"bufferView":45,"componentType":5126,"count":85680,"type":"VEC3"},{"bufferView":46,"componentType":5126,"count":85680,"type":"VEC2"},{"bufferView":47,"componentType":5125,"count":85680,"type":"SCALAR"},{"bufferView":48,"componentType":5126,"count":29094,"max":[-180.5840301513672,-1589.1080322265625,1540.70068359375],"min":[-520.7999267578125,-1928.654052734375,1234.61767578125],"type":"VEC3"},{"bufferView":49,"componentType":5126,"count":29094,"type":"VEC3"},{"bufferView":50,"componentType":5126,"count":29094,"type":"VEC2"},{"bufferView":51,"componentType":5125,"count":29094,"type":"SCALAR"},{"bufferView":52,"componentType":5126,"count":29094,"max":[290.5120849609375,-1589.1080322265625,1540.70068359375],"min":[-49.70381164550781,-1928.654052734375,1234.61767578125],"type":"VEC3"},{"bufferView":53,"componentType":5126,"count":29094,"type":"VEC3"},{"bufferView":54,"componentType":5126,"count":29094,"type":"VEC2"},{"bufferView":55,"componentType":5125,"count":29094,"type":"SCALAR"}],"asset":{"generator":"Luxion KeyShot","version":"2.0"},"bufferViews":[{"buffer":0,"byteLength":141408,"byteOffset":0,"byteStride":12},{"buffer":0,"byteLength":141408,"byteOffset":141408,"byteStride":12},{"buffer":0,"byteLength":94272,"byteOffset":282816,"byteStride":8},{"buffer":0,"byteLength":47136,"byteOffset":377088},{"buffer":0,"byteLength":141408,"byteOffset":424224,"byteStride":12},{"buffer":0,"byteLength":141408,"byteOffset":565632,"byteStride":12},{"buffer":0,"byteLength":94272,"byteOffset":707040,"byteStride":8},{"buffer":0,"byteLength":47136,"byteOffset":801312},{"buffer":0,"byteLength":141408,"byteOffset":848448,"byteStride":12},{"buffer":0,"byteLength":141408,"byteOffset":989856,"byteStride":12},{"buffer":0,"byteLength":94272,"byteOffset":1131264,"byteStride":8},{"buffer":0,"byteLength":47136,"byteOffset":1225536},{"buffer":0,"byteLength":141408,"byteOffset":1272672,"byteStride":12},{"buffer":0,"byteLength":141408,"byteOffset":1414080,"byteStride":12},{"buffer":0,"byteLength":94272,"byteOffset":1555488,"byteStride":8},{"buffer":0,"byteLength":47136,"byteOffset":1649760},{"buffer":0,"byteLength":141408,"byteOffset":1696896,"byteStride":12},{"buffer":0,"byteLength":141408,"byteOffset":1838304,"byteStride":12},{"buffer":0,"byteLength":94272,"byteOffset":1979712,"byteStride":8},{"buffer":0,"byteLength":47136,"byteOffset":2073984},{"buffer":0,"byteLength":141408,"byteOffset":2121120,"byteStride":12},{"buffer":0,"byteLength":141408,"byteOffset":2262528,"byteStride":12},{"buffer":0,"byteLength":94272,"byteOffset":2403936,"byteStride":8},{"buffer":0,"byteLength":47136,"byteOffset":2498208},{"buffer":0,"byteLength":141408,"byteOffset":2545344,"byteStride":12},{"buffer":0,"byteLength":141408,"byteOffset":2686752,"byteStride":12},{"buffer":0,"byteLength":94272,"byteOffset":2828160,"byteStride":8},{"buffer":0,"byteLength":47136,"byteOffset":2922432},{"buffer":0,"byteLength":141408,"byteOffset":2969568,"byteStride":12},{"buffer":0,"byteLength":141408,"byteOffset":3110976,"byteStride":12},{"buffer":0,"byteLength":94272,"byteOffset":3252384,"byteStride":8},{"buffer":0,"byteLength":47136,"byteOffset":3346656},{"buffer":0,"byteLength":36864,"byteOffset":3393792,"byteStride":12},{"buffer":0,"byteLength":36864,"byteOffset":3430656,"byteStride":12},{"buffer":0,"byteLength":24576,"byteOffset":3467520,"byteStride":8},{"buffer":0,"byteLength":12288,"byteOffset":3492096},{"buffer":0,"byteLength":684288,"byteOffset":3504384,"byteStride":12},{"buffer":0,"byteLength":684288,"byteOffset":4188672,"byteStride":12},{"buffer":0,"byteLength":456192,"byteOffset":4872960,"byteStride":8},{"buffer":0,"byteLength":228096,"byteOffset":5329152},{"buffer":0,"byteLength":684288,"byteOffset":5557248,"byteStride":12},{"buffer":0,"byteLength":684288,"byteOffset":6241536,"byteStride":12},{"buffer":0,"byteLength":456192,"byteOffset":6925824,"byteStride":8},{"buffer":0,"byteLength":228096,"byteOffset":7382016},{"buffer":0,"byteLength":1028160,"byteOffset":7610112,"byteStride":12},{"buffer":0,"byteLength":1028160,"byteOffset":8638272,"byteStride":12},{"buffer":0,"byteLength":685440,"byteOffset":9666432,"byteStride":8},{"buffer":0,"byteLength":342720,"byteOffset":10351872},{"buffer":0,"byteLength":349128,"byteOffset":10694592,"byteStride":12},{"buffer":0,"byteLength":349128,"byteOffset":11043720,"byteStride":12},{"buffer":0,"byteLength":232752,"byteOffset":11392848,"byteStride":8},{"buffer":0,"byteLength":116376,"byteOffset":11625600},{"buffer":0,"byteLength":349128,"byteOffset":11741976,"byteStride":12},{"buffer":0,"byteLength":349128,"byteOffset":12091104,"byteStride":12},{"buffer":0,"byteLength":232752,"byteOffset":12440232,"byteStride":8},{"buffer":0,"byteLength":116376,"byteOffset":12672984}],"buffers":[{"byteLength":12789360,"uri":"./ISTP_(고화질)_resources/ISTP_(고화질).bin"}],"cameras":[{"name":"active","orthographic":{"xmag":114.03199768066406,"ymag":114.03199768066406,"zfar":5009.41015625,"znear":1659.149169921875},"type":"orthographic"},{"name":"Perspective","perspective":{"aspectRatio":1.0,"yfov":1.0150992029471726,"zfar":9074.65625,"znear":3316.3818359375},"type":"perspective"},{"name":"Top","orthographic":{"xmag":82.58489990234375,"ymag":82.58489990234375,"zfar":39189.578125,"znear":35318.28125},"type":"orthographic"},{"name":"Front","orthographic":{"xmag":114.03199768066406,"ymag":114.03199768066406,"zfar":5009.41015625,"znear":1659.149169921875},"type":"orthographic"},{"name":"Right","orthographic":{"xmag":6.004570007324219,"ymag":6.004570007324219,"zfar":12107.689453125,"znear":9082.521484375},"type":"orthographic"}],"images":[{"uri":"./ISTP_(고화질)_resources/Layer_02_9_occlusion.png"},{"uri":"./ISTP_(고화질)_resources/Layer_02_11_occlusion.png"},{"uri":"./ISTP_(고화질)_resources/Layer_02_13_occlusion.png"},{"uri":"./ISTP_(고화질)_resources/Layer_02_15_occlusion.png"},{"uri":"./ISTP_(고화질)_resources/Layer_02_17_occlusion.png"},{"uri":"./ISTP_(고화질)_resources/Layer_02_19_occlusion.png"},{"uri":"./ISTP_(고화질)_resources/Layer_02_21_occlusion.png"},{"uri":"./ISTP_(고화질)_resources/Layer_02_23_occlusion.png"},{"uri":"./ISTP_(고화질)_resources/ISFP____.stl_26_occlusion.png"},{"uri":"./ISTP_(고화질)_resources/ISFP____.stl_29_occlusion.png"},{"uri":"./ISTP_(고화질)_resources/ISFP____.stl_31_occlusion.png"},{"uri":"./ISTP_(고화질)_resources/ISFP____.stl_33_occlusion.png"},{"uri":"./ISTP_(고화질)_resources/ISFP____.stl_36_occlusion.png"},{"uri":"./ISTP_(고화질)_resources/ISFP____.stl_38_occlusion.png"}],"materials":[{"doubleSided":true,"occlusionTexture":{"index":0},"pbrMetallicRoughness":{"baseColorFactor":[1.0,0.6601470112800598,0.0,1.0],"metallicFactor":0.0,"roughnessFactor":0.0}},{"doubleSided":true,"occlusionTexture":{"index":1},"pbrMetallicRoughness":{"baseColorFactor":[1.0,0.6601470112800598,0.0,1.0],"metallicFactor":0.0,"roughnessFactor":0.0}},{"doubleSided":true,"occlusionTexture":{"index":2},"pbrMetallicRoughness":{"baseColorFactor":[1.0,0.6601470112800598,0.0,1.0],"metallicFactor":0.0,"roughnessFactor":0.0}},{"doubleSided":true,"occlusionTexture":{"index":3},"pbrMetallicRoughness":{"baseColorFactor":[1.0,0.6601470112800598,0.0,1.0],"metallicFactor":0.0,"roughnessFactor":0.0}},{"doubleSided":true,"occlusionTexture":{"index":4},"pbrMetallicRoughness":{"baseColorFactor":[1.0,0.6601470112800598,0.0,1.0],"metallicFactor":0.0,"roughnessFactor":0.0}},{"doubleSided":true,"occlusionTexture":{"index":5},"pbrMetallicRoughness":{"baseColorFactor":[1.0,0.6601470112800598,0.0,1.0],"metallicFactor":0.0,"roughnessFactor":0.0}},{"doubleSided":true,"occlusionTexture":{"index":6},"pbrMetallicRoughness":{"baseColorFactor":[1.0,0.6601470112800598,0.0,1.0],"metallicFactor":0.0,"roughnessFactor":0.0}},{"doubleSided":true,"occlusionTexture":{"index":7},"pbrMetallicRoughness":{"baseColorFactor":[1.0,0.6601470112800598,0.0,1.0],"metallicFactor":0.0,"roughnessFactor":0.0}},{"doubleSided":true,"occlusionTexture":{"index":8},"pbrMetallicRoughness":{"baseColorFactor":[1.0,0.4521334171295166,0.3230167031288147,1.0],"metallicFactor":0.0,"roughnessFactor":0.0}},{"doubleSided":true,"occlusionTexture":{"index":9},"pbrMetallicRoughness":{"baseColorFactor":[1.0,0.37991777062416077,0.0,1.0],"metallicFactor":0.0,"roughnessFactor":0.0}},{"doubleSided":true,"occlusionTexture":{"index":10},"pbrMetallicRoughness":{"baseColorFactor":[1.0,0.37991777062416077,0.0,1.0],"metallicFactor":0.0,"roughnessFactor":0.0}},{"doubleSided":true,"occlusionTexture":{"index":11},"pbrMetallicRoughness":{"baseColorFactor":[1.0,0.37991777062416077,0.0,1.0],"metallicFactor":0.0,"roughnessFactor":0.0}},{"doubleSided":true,"occlusionTexture":{"index":12},"pbrMetallicRoughness":{"baseColorFactor":[0.0,0.0,0.0,1.0],"metallicFactor":0.0,"roughnessFactor":0.0}},{"doubleSided":true,"occlusionTexture":{"index":13},"pbrMetallicRoughness":{"baseColorFactor":[0.0,0.0,0.0,1.0],"metallicFactor":0.0,"roughnessFactor":0.0}}],"meshes":[{"name":"Layer 02(F52C0D16-900C-4201-A236-6D73426F82FA)-mesh","primitives":[{"attributes":{"NORMAL":1,"POSITION":0,"TEXCOORD_0":2},"indices":3,"material":0,"mode":4}]},{"name":"Layer 02(6AD377DB-F3E0-436B-BBC7-23D8C948A1DE)-mesh","primitives":[{"attributes":{"NORMAL":5,"POSITION":4,"TEXCOORD_0":6},"indices":7,"material":1,"mode":4}]},{"name":"Layer 02(EBED1DF9-458C-4019-8FD7-A6B4004FCF08)-mesh","primitives":[{"attributes":{"NORMAL":9,"POSITION":8,"TEXCOORD_0":10},"indices":11,"material":2,"mode":4}]},{"name":"Layer 02(A9369841-2C4D-40BF-9B4A-3D0A038676EC)-mesh","primitives":[{"attributes":{"NORMAL":13,"POSITION":12,"TEXCOORD_0":14},"indices":15,"material":3,"mode":4}]},{"name":"Layer 02(1C1D4811-BCB6-42F8-B411-EBBF083CBDFA)-mesh","primitives":[{"attributes":{"NORMAL":17,"POSITION":16,"TEXCOORD_0":18},"indices":19,"material":4,"mode":4}]},{"name":"Layer 02(BE3D1480-5FAB-43D0-92CC-E774F80A8F4A)-mesh","primitives":[{"attributes":{"NORMAL":21,"POSITION":20,"TEXCOORD_0":22},"indices":23,"material":5,"mode":4}]},{"name":"Layer 02(74B49185-9C48-401D-9509-314FA02FEE2C)-mesh","primitives":[{"attributes":{"NORMAL":25,"POSITION":24,"TEXCOORD_0":26},"indices":27,"material":6,"mode":4}]},{"name":"Layer 02(EEA0C094-D49E-4E0F-8F89-A28991E2AE86)-mesh","primitives":[{"attributes":{"NORMAL":29,"POSITION":28,"TEXCOORD_0":30},"indices":31,"material":7,"mode":4}]},{"name":"ISFP____.stl(DBAF7166-31F2-4CC4-A08F-1787B5157F3D)-mesh","primitives":[{"attributes":{"NORMAL":33,"POSITION":32,"TEXCOORD_0":34},"indices":35,"material":8,"mode":4}]},{"name":"ISFP____.stl(E014F987-E046-4124-8CE2-B89C2CD55D8C)-mesh","primitives":[{"attributes":{"NORMAL":37,"POSITION":36,"TEXCOORD_0":38},"indices":39,"material":9,"mode":4}]},{"name":"ISFP____.stl(690BA917-91AE-4665-9348-033655CED448)-mesh","primitives":[{"attributes":{"NORMAL":41,"POSITION":40,"TEXCOORD_0":42},"indices":43,"material":10,"mode":4}]},{"name":"ISFP____.stl(B4BFCD14-B9F6-47CA-9F21-04CB9FD21145)-mesh","primitives":[{"attributes":{"NORMAL":45,"POSITION":44,"TEXCOORD_0":46},"indices":47,"material":11,"mode":4}]},{"name":"ISFP____.stl(D83E2234-2AEC-4103-97E3-0E48EB6CE207)-mesh","primitives":[{"attributes":{"NORMAL":49,"POSITION":48,"TEXCOORD_0":50},"indices":51,"material":12,"mode":4}]},{"name":"ISFP____.stl(2D027F97-E971-4FCD-927C-319C7606F7FC)-mesh","primitives":[{"attributes":{"NORMAL":53,"POSITION":52,"TEXCOORD_0":54},"indices":55,"material":13,"mode":4}]}],"nodes":[{"camera":0,"matrix":[1.0,0.0,0.0,0.0,0.0,1.0,1.22465002895872e-16,0.0,0.0,-1.22465002895872e-16,1.0,0.0,270.010009765625,-283.5090026855469,3337.239990234375,1.0],"name":"active"},{"camera":1,"matrix":[0.7500039935111998,5.302759058220739e-17,-0.4330019950866699,0.0,-0.2165022879898402,0.7499967180317845,-0.3750042319416806,0.0,0.4330019950866699,0.5000029802322388,0.7500039935112,0.0,1605.489990234375,2893.070068359375,5210.31982421875,1.0],"name":"Perspective"},{"camera":2,"matrix":[1.0,0.0,0.0,0.0,0.0,1.22465002895872e-16,-1.0,0.0,0.0,1.0,1.22465002895872e-16,0.0,-6534.89990234375,36942.1015625,-9916.3203125,1.0],"name":"Top"},{"camera":3,"matrix":[1.0,0.0,0.0,0.0,0.0,1.0,1.22465002895872e-16,0.0,0.0,-1.22465002895872e-16,1.0,0.0,270.010009765625,-283.5090026855469,3337.239990234375,1.0],"name":"Front"},{"camera":4,"matrix":[0.0,1.22465002895872e-16,-1.0,0.0,0.0,1.0,1.22465002895872e-16,0.0,1.0,0.0,0.0,0.0,10612.7998046875,0.0,14.80109977722168,1.0],"name":"Right"},{"mesh":0,"name":"Layer 02(F52C0D16-900C-4201-A236-6D73426F82FA)"},{"mesh":1,"name":"Layer 02(6AD377DB-F3E0-436B-BBC7-23D8C948A1DE)"},{"mesh":2,"name":"Layer 02(EBED1DF9-458C-4019-8FD7-A6B4004FCF08)"},{"mesh":3,"name":"Layer 02(A9369841-2C4D-40BF-9B4A-3D0A038676EC)"},{"mesh":4,"name":"Layer 02(1C1D4811-BCB6-42F8-B411-EBBF083CBDFA)"},{"mesh":5,"name":"Layer 02(BE3D1480-5FAB-43D0-92CC-E774F80A8F4A)"},{"mesh":6,"name":"Layer 02(74B49185-9C48-401D-9509-314FA02FEE2C)"},{"mesh":7,"name":"Layer 02(EEA0C094-D49E-4E0F-8F89-A28991E2AE86)"},{"children":[5,6,7,8,9,10,11,12],"name":"Layer 02"},{"mesh":8,"name":"ISFP____.stl(DBAF7166-31F2-4CC4-A08F-1787B5157F3D)"},{"children":[14],"name":"Layer 03"},{"mesh":9,"name":"ISFP____.stl(E014F987-E046-4124-8CE2-B89C2CD55D8C)"},{"mesh":10,"name":"ISFP____.stl(690BA917-91AE-4665-9348-033655CED448)"},{"mesh":11,"name":"ISFP____.stl(B4BFCD14-B9F6-47CA-9F21-04CB9FD21145)"},{"children":[16,17,18],"name":"Layer 05"},{"mesh":12,"name":"ISFP____.stl(D83E2234-2AEC-4103-97E3-0E48EB6CE207)"},{"mesh":13,"name":"ISFP____.stl(2D027F97-E971-4FCD-927C-319C7606F7FC)"},{"children":[20,21],"name":"Layer 04"},{"children":[13,15,19,22],"matrix":[0.800000011920929,0.0,0.0,0.0,0.0,9.797170188469913e-17,-0.800000011920929,0.0,0.0,0.800000011920929,9.797170188469913e-17,0.0,88.4718017578125,-195.51499938964844,14.80109977722168,1.0],"name":"ISFP부피수정-2"},{"children":[23],"name":"Default"},{"children":[24],"matrix":[0.001,0.0,0.0,0.0,0.0,0.001,0.0,0.0,0.0,0.0,0.001,0.0,0.0,0.0,0.0,1.0],"name":"lux_root"}],"samplers":[{"magFilter":9729,"minFilter":9987,"wrapS":10497,"wrapT":10497},{"magFilter":9729,"minFilter":9987,"wrapS":10497,"wrapT":10497},{"magFilter":9729,"minFilter":9987,"wrapS":10497,"wrapT":10497},{"magFilter":9729,"minFilter":9987,"wrapS":10497,"wrapT":10497},{"magFilter":9729,"minFilter":9987,"wrapS":10497,"wrapT":10497},{"magFilter":9729,"minFilter":9987,"wrapS":10497,"wrapT":10497},{"magFilter":9729,"minFilter":9987,"wrapS":10497,"wrapT":10497},{"magFilter":9729,"minFilter":9987,"wrapS":10497,"wrapT":10497},{"magFilter":9729,"minFilter":9987,"wrapS":10497,"wrapT":10497},{"magFilter":9729,"minFilter":9987,"wrapS":10497,"wrapT":10497},{"magFilter":9729,"minFilter":9987,"wrapS":10497,"wrapT":10497},{"magFilter":9729,"minFilter":9987,"wrapS":10497,"wrapT":10497},{"magFilter":9729,"minFilter":9987,"wrapS":10497,"wrapT":10497},{"magFilter":9729,"minFilter":9987,"wrapS":10497,"wrapT":10497}],"scenes":[{"nodes":[0,1,2,3,4,25]}],"textures":[{"sampler":0,"source":0},{"sampler":1,"source":1},{"sampler":2,"source":2},{"sampler":3,"source":3},{"sampler":4,"source":4},{"sampler":5,"source":5},{"sampler":6,"source":6},{"sampler":7,"source":7},{"sampler":8,"source":8},{"sampler":9,"source":9},{"sampler":10,"source":10},{"sampler":11,"source":11},{"sampler":12,"source":12},{"sampler":13,"source":13}]}  